PathFileType	4	(X/Y/Z)	Patient4_TMGait_0pt3_02_right_02.trc.trc
DataRate	CameraRate	NumFrames	NumMarkers	Units	OrigDataRate	OrigDataStartFrame	OrigNumFrames
50.541516245487	50.541516245487	4	33	mm	50.541516245487	89	       141
Frame#	Time	Sacral			L.Shoulder			Chest			R.Shoulder			Neck			R.ASIS			L.ASIS			R.Thigh.Superior			R.Thigh.Lateral			R.Thigh.Inferior			R.Patella			L.Thigh.Superior			L.Thigh.Lateral			L.Thigh.Inferior			L.Patella			L.Shank.Superior			L.Shank.Lateral			L.Shank.Inferior			R.Shank.Superior			R.Shank.Lateral			R.Shank.Inferior			R.Heel			R.Midfoot.Superior			R.Midfoot.Lateral			R.Toe			L.Heel			L.Midfoot.Lateral			L.Midfoot.Superior			L.Toe			L.Elbow			L.Wrist			R.Elbow			R.Wrist			
		X1	Y1	Z1	X2	Y2	Z2	X3	Y3	Z3	X4	Y4	Z4	X5	Y5	Z5	X6	Y6	Z6	X7	Y7	Z7	X8	Y8	Z8	X9	Y9	Z9	X10	Y10	Z10	X11	Y11	Z11	X12	Y12	Z12	X13	Y13	Z13	X14	Y14	Z14	X15	Y15	Z15	X16	Y16	Z16	X17	Y17	Z17	X18	Y18	Z18	X19	Y19	Z19	X20	Y20	Z20	X21	Y21	Z21	X22	Y22	Z22	X23	Y23	Z23	X24	Y24	Z24	X25	Y25	Z25	X26	Y26	Z26	X27	Y27	Z27	X28	Y28	Z28	X29	Y29	Z29	X30	Y30	Z30	X31	Y31	Z31	X32	Y32	Z32	X33	Y33	Z33	

89	3.981142857143	737.815030457362	1011.062353639876	502.414415573549	884.103069384010	1419.861787185285	272.794821243264	1014.599134415261	1360.191418424072	417.198308789200	964.543565669107	1452.271457123173	594.444121784518	896.131494059595	1492.747572720668	423.842514572075	974.966147546704	937.474473792819	593.298033771337	933.202225940470	959.776748972477	322.418928641520	977.615157758860	724.148656115497	571.961787635709	882.360736323474	625.876664903575	639.375021984120	947.251624707296	559.262199377847	560.988922217434	927.025036853092	458.991612283069	578.392635419023	999.491802441459	759.236337820678	358.388200048883	921.314637434850	634.425544771543	302.315133923205	1014.075345322149	566.636556342910	365.596226855141	1020.528867857908	497.432961685398	374.769698682621	998.811901897490	424.060695695084	367.606490523669	917.321779759491	303.075294125680	318.337171164088	977.090097571040	196.066730219969	389.762891212517	856.868594106926	390.984545103969	586.218304346743	744.434708070653	333.449479479350	647.756662421265	742.980804161456	225.022222345216	593.961698389267	550.144855378029	122.571884176270	564.934712518677	726.842543671509	109.114527866435	608.959532450473	621.097098360848	83.565627285856	641.366827566421	815.417891312526	34.734310965330	639.930905011743	857.499285464077	37.494390113013	432.314400256259	932.546071360713	35.773207859400	352.224687605503	1015.230067909635	96.749294361619	380.298469287296	1143.812363674555	47.022737667559	353.484792295641	779.728908317052	1075.917336363360	192.855456344603	853.658542247238	824.955471456889	209.265797909831	1127.063224167434	1158.781419009563	718.254045975320	1373.251169770982	1184.802708680160	651.600577379752	
90	4.000928571429	737.421813988761	1011.175629857836	497.049527207912	885.945606768697	1421.024500209241	269.734622665274	1014.674241345698	1361.146037344231	415.585014841010	962.463706385764	1452.699365629399	592.477086722025	896.133541927879	1493.585712423811	421.185686845636	974.022840610818	938.255213458409	590.016431221725	934.520941655836	960.342796635195	318.769114722366	980.741225369900	725.868514117329	569.310463247434	887.559218133090	626.373614183328	636.916622326181	954.526879980181	560.258017987500	559.147984762628	935.394425471368	458.595358841831	577.966146836513	999.427352876377	758.600586711881	355.149183879378	920.402055318358	634.176215584991	299.680431726576	1012.260397173850	565.893019504218	363.505943026578	1018.116385743092	496.626649741999	373.097037410352	995.874797747479	423.362978469694	366.211444317947	913.710290646613	302.774039778575	317.233849145304	972.200224568450	195.593177173879	389.295745252023	863.365177829821	391.635463519120	585.566144834092	748.841082476399	337.753022938670	646.392487100884	745.322063689237	228.704691178689	593.806402503910	550.159954511545	133.107583254161	564.232461475695	725.624340959897	111.299240876127	609.182630055925	618.720035190127	90.693632973370	640.855050741750	809.666794799936	34.024690482879	640.016096058847	851.524470039578	37.490042426723	432.317007677746	926.558987513500	35.754877643349	352.226685022883	1009.328144376434	96.587740291776	380.301944070646	1137.923036776554	46.596265627405	353.448868791790	790.310177187880	1074.999257620214	185.593667989904	870.055142662972	825.773075483702	199.763793774693	1118.545318995803	1154.431079470044	716.946114177787	1367.702613236422	1164.874354275559	656.031024244936	
91	4.020714285714	736.897179187526	1010.995853140330	491.719263428459	887.677307750485	1422.055115938062	266.890864309942	1014.522289722683	1361.916361818834	414.221239646600	960.054635552001	1452.830668416714	590.752019501597	895.943475496092	1494.228824175243	418.752104034538	972.897719350243	938.893706476410	586.823581015706	935.773031766606	960.739612028366	315.234247521999	984.252522463520	727.651766205506	566.630562590272	893.474769945255	626.796704784374	634.474106185517	962.554901139583	561.377738786107	557.169649750505	944.683269976756	458.305830355449	577.319333747896	999.546252647441	757.959531830598	352.094392601217	919.895467736737	633.817229694238	297.162285882741	1010.937346832518	565.144797544874	361.553763909616	1016.278059712378	495.746936385845	371.520155905199	993.391507572028	422.548291700778	364.930461096064	910.438162582799	302.462635356050	316.176654313240	967.476631162247	195.049793121880	388.880442488400	870.785817854704	392.333946883390	584.728132254812	754.212711211888	342.339878517816	644.837729109287	748.435089983667	232.779840703533	593.455033976686	551.210649071770	144.579224240381	563.090639766317	724.903624850999	114.057075067190	609.195898294364	616.998583391270	98.781574941481	640.023636515870	804.053424198977	33.240874885396	640.171531107877	845.553498950754	37.498414420451	432.310330759074	920.583985888648	35.741660173876	352.234823053045	1003.438227367790	96.432847573355	380.322428710942	1132.045094470050	46.165387427263	353.433909274661	801.655800120065	1074.081863678299	178.476358079113	886.676418485555	826.604457185917	190.710301561757	1109.004150565142	1149.559491027076	715.901255726858	1359.944953879349	1142.986250185192	660.998024916791	
92	4.040500000000	736.244677780666	1010.479564117159	486.439996126015	889.306459037363	1422.907082502195	264.269103566831	1014.144164865965	1362.453458072569	413.115159527017	957.309737281487	1452.614829417235	589.267322230007	895.566319813900	1494.629376752271	416.545709948510	971.595921400309	939.363045567599	583.739539397583	936.964115496364	960.930381928443	311.842507524541	988.114128134051	729.492721904758	563.902735200111	900.067765227691	627.159261271012	632.029277389423	971.256623802777	562.643930811049	555.024961929035	954.820145451046	458.154459912958	576.402114579161	999.892038424032	757.295314146297	349.243624297453	919.868941588187	633.309237961779	294.784143651954	1010.211351336364	564.371917581231	359.766682527261	1015.138403674664	494.766161466951	370.059476946037	991.459211231922	421.577185128693	363.789242887054	907.572302059149	302.129091338721	315.189460948987	962.947777044091	194.419578931987	388.534755858516	879.067630828360	393.094067132215	583.653238693023	760.504739670339	347.174159085548	643.026086331392	752.313105521879	237.228686441832	592.828950918781	553.351082455863	156.818855124256	561.389112843770	724.748300419766	117.455338985590	608.940294678083	616.024816629033	107.778451269011	638.786650638402	798.720596572566	32.471781594358	640.403135481903	839.590026411933	37.520657225043	432.293617234003	914.623284959742	35.735419808798	352.247192679642	997.562682599603	96.286661861114	380.361691536295	1126.179374035751	45.735142390005	353.435567118600	813.696022671687	1073.216062290622	171.547745242012	903.524334158216	827.483799122585	182.220246172880	1098.477502554834	1144.198495065659	715.036100946837	1349.740729314933	1119.288652232875	666.382009175155	
